# xmcd
#
# Track frame offsets: 
#        150
#        21409
#        40721
#        58459
#        76471
#        95286
#        114243
#        133553
#        156637
#        181578
#        200231
#        218062
#
# Disc length: 3151 seconds
#
# Revision: 0
# Processed by: cddbd v1.5.2PL0 Copyright (c) Steve Scherf et al.
# Submitted via: ExactAudioCopy v0.99pb5
#
DISCID=a70c4d0c
DTITLE=Various Artist - Serenade Volume 2
DYEAR=1999
DGENRE=R&B
TTITLE0=Forte - Could This Be Love
TTITLE1=Innerlude - Together As One (featuring Pinay)
TTITLE2=Pinay - Next Time (Beat Digga Remix)
TTITLE3=Drop 'N Harmony - Sexy Underwear
TTITLE4=Priscilla Rodil - Love Me Down
TTITLE5=IF - So In Love
TTITLE6=Lyrik - Butterflies
TTITLE7=Big Saint - I Like
TTITLE8=Jocelyn Enriquez - You Are The One (Smooth Mix)
TTITLE9=Touch - Say I Do
TTITLE10=FASE - Serenade
TTITLE11=Ver5e - Wonderful Tonight
EXTD=
EXTT0=
EXTT1=
EXTT2=
EXTT3=
EXTT4=
EXTT5=
EXTT6=
EXTT7=
EXTT8=
EXTT9=
EXTT10=
EXTT11=
PLAYORDER=
